<svg width="46" height="46" viewBox="0 0 46 46" fill="none" xmlns="http://www.w3.org/2000/svg">
<circle cx="23" cy="23" r="23" fill="#FD3A3A"/>
<path d="M22.064 34.416C20.8053 34.416 19.6 34.2187 18.448 33.824C17.3067 33.4293 16.304 32.8587 15.44 32.112C14.5867 31.3653 13.9733 30.48 13.6 29.456L17.744 27.92C17.872 28.2827 18.1387 28.624 18.544 28.944C18.9493 29.2533 19.456 29.5093 20.064 29.712C20.672 29.904 21.3387 30 22.064 30C22.7573 30 23.408 29.8987 24.016 29.696C24.6347 29.4827 25.1307 29.1893 25.504 28.816C25.888 28.4427 26.08 28.0053 26.08 27.504C26.08 27.0027 25.8827 26.5867 25.488 26.256C25.0933 25.9253 24.5867 25.664 23.968 25.472C23.3493 25.2693 22.7147 25.1147 22.064 25.008C20.4533 24.7733 19.008 24.3947 17.728 23.872C16.4587 23.3387 15.456 22.608 14.72 21.68C13.984 20.7413 13.616 19.552 13.616 18.112C13.616 16.7253 14.0053 15.5147 14.784 14.48C15.5733 13.4453 16.608 12.64 17.888 12.064C19.1787 11.488 20.5707 11.2 22.064 11.2C23.3013 11.2 24.496 11.3973 25.648 11.792C26.8 12.1867 27.8027 12.7573 28.656 13.504C29.52 14.2507 30.1387 15.1467 30.512 16.192L26.368 17.696C26.24 17.3333 25.9733 16.9973 25.568 16.688C25.1627 16.3787 24.656 16.128 24.048 15.936C23.44 15.744 22.7787 15.648 22.064 15.648C21.3813 15.6373 20.7307 15.7387 20.112 15.952C19.504 16.1653 19.0027 16.4587 18.608 16.832C18.224 17.2053 18.032 17.632 18.032 18.112C18.032 18.7413 18.2133 19.216 18.576 19.536C18.9493 19.856 19.44 20.0853 20.048 20.224C20.656 20.3627 21.328 20.4853 22.064 20.592C23.5787 20.816 24.976 21.216 26.256 21.792C27.536 22.3573 28.56 23.1147 29.328 24.064C30.1067 25.0027 30.496 26.1493 30.496 27.504C30.496 28.8907 30.1067 30.1013 29.328 31.136C28.5493 32.1707 27.52 32.976 26.24 33.552C24.96 34.128 23.568 34.416 22.064 34.416Z" fill="white"/>
</svg>
